HIERARCHY
ROOT hip
{
	OFFSET 0.000000 0.000000 0.000000
	CHANNELS 6  Xposition Yposition Zposition Xrotation Zrotation Yrotation
	JOINT abdomen
	{
		OFFSET 0.000000 3.402643 0.000000
			CHANNELS 3 Xrotation Zrotation Yrotation
		JOINT chest
		{
			OFFSET 0.000000 8.438565 -0.680529
				CHANNELS 3 Xrotation Zrotation Yrotation
			JOINT neck
			{
				OFFSET 0.000000 10.207942 -0.272212
					CHANNELS 3 Xrotation Zrotation Yrotation
				JOINT head
				{
					OFFSET 0.000000 3.130431 0.000000
						CHANNELS 3 Xrotation Zrotation Yrotation
					End Site
					{
						OFFSET 0.000000 3.130435 0.000000
					}
				}
			}
			JOINT lCollar
			{
				OFFSET 3.470700 6.669187 -0.816635
					CHANNELS 3 Yrotation Zrotation Xrotation
				JOINT lShldr
				{
					OFFSET 3.198488 0.000000 0.000000
						CHANNELS 3 Zrotation Yrotation Xrotation
					JOINT lForeArm
					{
						OFFSET 10.139888 0.000000 0.000000
							CHANNELS 3 Yrotation Zrotation Xrotation
						JOINT lHand
						{
							OFFSET 8.370511 0.000000 0.000000
								CHANNELS 3 Zrotation Yrotation Xrotation
							End Site
							{
								OFFSET 4.083176 0.000000 0.000000
							}
						}
					}
				}
			}
			JOINT rCollar
			{
				OFFSET -3.470700 6.669187 -0.816635
					CHANNELS 3 Yrotation Zrotation Xrotation
				JOINT rShldr
				{
					OFFSET -3.198488 0.000000 0.000000
						CHANNELS 3 Zrotation Yrotation Xrotation
					JOINT rForeArm
					{
						OFFSET -10.139888 0.000000 0.000000
							CHANNELS 3 Yrotation Zrotation Xrotation
						JOINT rHand
						{
							OFFSET -8.370511 0.000000 0.000000
								CHANNELS 3 Zrotation Yrotation Xrotation
							End Site
							{
								OFFSET -4.083176 0.000000 0.000000
							}
						}
					}
				}
			}
		}
	}
	JOINT lThigh 
	{
		OFFSET 5.308129 -1.633274 1.361059
			CHANNELS 3 Xrotation Zrotation Yrotation
		JOINT lShin
		{
			OFFSET -2.041588 -20.007561 0.000000
				CHANNELS 3 Xrotation Zrotation Yrotation
			JOINT lFoot
			{
				OFFSET 0.000000 -19.190928 -1.224953
					CHANNELS 3 Xrotation Yrotation Zrotation
				End Site
				{
					OFFSET 0.000000 -2.449906 4.627600
				}
			}
		}
	}
	JOINT rThigh
	{
		OFFSET -5.308129 -1.633274 1.361059
			CHANNELS 3 Xrotation Zrotation Yrotation
		JOINT rShin
		{
			OFFSET 2.041588 -20.007561 0.000000
				CHANNELS 3 Xrotation Zrotation Yrotation
			JOINT rFoot
			{
				OFFSET 0.000000 -19.190928 -1.224953
					CHANNELS 3 Xrotation Yrotation Zrotation
				End Site
				{
					OFFSET 0.000000 -2.449906 4.627600
				}
			}
		}
	}
}
MOTION
Frames: 19
Frame Time: 0.032000
348.825317 49.904942 3705.199219 22.29 -8.08 14.85 1.63 0.50 15.82 0.70 0.21 6.78 -5.29 -3.01 -5.86 9.74 -3.09 -6.04 -2.07 2.42 -0.09 -58.22 50.82 22.73 -112.93 2.21 25.53 11.47 16.60 3.37 4.20 -7.30 -0.09 75.80 10.58 22.71 114.76 -2.58 31.28 -32.63 8.37 -5.53 -59.77 1.18 -2.82 28.63 -1.07 -2.43 23.22 -0.75 -12.05 -9.11 -2.85 -5.65 71.44 -1.35 3.30 -0.00 -0.00 0.00 
351.099152 48.523788 3712.775391 20.80 -7.96 15.17 1.64 -0.30 12.56 0.70 -0.12 5.39 -3.51 -2.09 -4.48 8.69 -1.08 -4.51 -0.70 0.12 -0.02 -64.66 43.74 16.84 -112.10 2.24 26.99 12.93 15.69 3.56 4.50 -6.61 -0.02 77.49 3.72 23.32 106.93 -2.66 31.51 -32.97 7.55 -5.10 -54.90 2.33 0.02 27.26 -1.07 -2.50 23.63 -1.25 -11.91 -11.92 -3.23 -7.72 89.05 -2.71 3.31 -0.00 -0.00 0.00 
355.936859 46.623043 3729.100586 20.74 -7.15 15.31 1.27 -1.82 7.46 0.54 -0.77 3.19 -3.05 -1.16 -2.18 6.94 0.62 -2.12 1.36 -3.66 -0.12 -69.42 30.04 13.93 -110.56 2.50 29.57 13.36 15.64 3.61 4.93 -5.66 -0.04 78.84 -5.65 24.52 96.75 -2.61 29.80 -44.48 0.80 -0.81 -51.18 3.52 4.64 37.86 -0.93 -2.79 9.81 -6.74 -11.05 -21.54 -7.32 -8.46 108.33 -4.20 3.33 -0.00 -0.00 0.00 
355.190796 45.412132 3726.122070 21.85 -3.29 15.36 3.47 -4.58 0.27 1.49 -1.95 0.11 -5.95 0.06 -0.02 5.18 2.81 0.00 1.19 -5.60 -0.13 -73.96 8.87 11.83 -108.59 2.68 32.77 13.55 14.76 3.41 5.27 -5.13 -0.05 80.29 -14.39 13.92 86.98 -2.94 34.26 -36.17 10.43 -7.70 -46.12 -1.21 6.22 47.65 -0.75 -3.09 -4.02 -3.09 -12.31 -39.00 -13.14 -5.16 122.15 -4.79 2.40 -0.00 -0.00 0.00 
357.138885 45.836250 3732.774658 22.67 -3.82 14.85 3.88 -2.53 -5.95 1.65 -1.08 -2.54 -5.72 -0.19 2.07 5.06 3.98 1.94 0.18 -4.24 -0.16 -80.03 -6.81 9.24 -108.50 3.36 42.28 13.74 12.89 3.02 5.11 -5.27 -0.06 75.89 -25.34 11.69 85.32 -3.02 34.49 -34.35 9.45 -6.68 -38.05 -1.74 3.12 47.90 -0.47 -3.13 -6.09 -3.01 -12.47 -57.19 -12.53 -4.25 123.16 -4.77 2.41 -0.00 -0.00 0.00 
359.886383 47.490520 3749.535156 23.20 -5.64 13.95 3.77 1.58 -11.31 1.62 0.67 -4.84 -5.60 0.11 5.61 6.38 0.73 5.66 1.70 -2.86 -0.09 -84.92 -14.98 7.45 -112.51 3.19 40.20 14.62 14.26 3.63 4.24 -6.60 -0.06 65.51 -33.82 19.17 87.17 -2.81 33.10 -33.56 10.42 -6.94 -27.15 1.14 0.54 42.58 -0.36 -3.09 2.52 -5.48 -11.93 -68.64 -9.87 -4.95 112.05 -4.29 3.30 -0.00 -0.00 0.00 
357.890900 48.477898 3750.195068 24.47 -6.96 12.79 3.70 4.51 -14.86 1.58 1.93 -6.36 -7.15 2.42 7.30 7.31 -2.24 7.68 2.68 -1.41 -0.11 -86.81 -20.29 9.48 -117.26 3.15 39.34 13.44 14.95 3.50 4.86 -9.55 -0.05 57.77 -42.74 25.42 88.27 -2.01 21.83 -31.61 12.63 -7.77 -19.93 4.17 -0.36 37.25 -0.84 -2.50 9.12 -6.30 -11.00 -76.77 -5.93 -2.31 103.46 -3.70 3.34 -0.00 -0.00 0.00 
359.329773 49.388302 3744.510742 25.64 -8.78 11.63 3.69 6.83 -15.51 1.59 2.92 -6.64 -8.04 4.43 7.63 8.04 -5.46 8.36 3.21 -0.33 -0.16 -86.74 -22.05 10.89 -121.29 3.32 41.45 15.70 18.19 4.99 6.05 -12.40 0.00 53.33 -51.46 29.00 89.74 -1.59 17.59 -29.88 14.01 -8.03 -13.80 7.79 2.42 33.26 -1.06 -2.46 18.52 -5.72 -10.28 -80.46 -2.01 0.46 89.84 -2.94 3.84 -0.00 -0.00 0.00 
365.789948 50.559986 3772.808594 26.42 -8.57 10.46 2.99 8.29 -15.28 1.27 3.55 -6.54 -7.29 4.15 8.40 7.90 -8.25 9.21 3.38 -0.62 -0.14 -84.98 -18.25 10.22 -122.12 3.18 40.99 19.04 18.41 6.16 7.85 -13.43 -0.05 54.19 -60.58 25.92 91.90 -2.38 26.27 -37.24 18.27 -13.60 -9.20 8.12 4.73 38.54 -0.65 -2.91 25.08 -3.50 -10.67 -75.95 -1.66 1.30 64.43 -1.24 3.62 -0.00 -0.00 0.00 
364.576080 50.552586 3771.550537 26.15 -6.20 9.35 3.93 9.01 -14.88 1.68 3.86 -6.38 -8.14 3.99 8.48 7.88 -10.22 9.19 3.68 -1.30 -0.09 -84.43 -14.39 8.99 -119.01 3.44 44.49 13.67 12.89 3.11 7.29 -12.64 -0.13 64.11 -60.27 12.57 92.49 -2.79 31.31 -37.16 20.65 -15.08 -10.55 5.74 3.26 59.37 0.21 -3.37 29.44 -5.85 -9.14 -67.83 -3.67 0.92 41.61 0.12 2.72 -0.00 -0.00 0.00 
365.416901 49.505993 3779.020264 24.64 -4.77 8.49 3.97 9.50 -11.96 1.69 4.06 -5.12 -5.87 2.79 7.15 7.39 -12.19 7.94 2.31 -1.28 -0.12 -85.02 -7.44 11.15 -112.92 3.61 46.00 13.86 15.18 3.64 5.69 -8.95 -0.06 68.09 -51.87 5.59 93.59 -2.59 30.74 -32.62 16.56 -10.48 -13.13 3.33 4.09 84.17 1.60 -3.95 31.42 -3.29 -10.62 -60.28 -4.57 -2.10 33.64 0.99 2.13 -0.00 -0.00 0.00 
367.892029 47.809532 3796.470215 23.44 -6.11 7.60 3.21 11.56 -6.85 1.38 4.96 -2.92 -3.92 0.74 5.85 7.19 -13.96 6.36 1.98 -2.19 -0.10 -86.05 0.02 13.43 -104.39 3.37 41.74 12.25 17.60 3.70 4.38 -4.72 -0.10 65.75 -38.07 4.88 94.36 -2.47 28.26 -28.09 10.84 -5.93 -19.35 4.95 7.29 106.07 2.77 -3.76 32.68 -2.54 -10.63 -53.64 -2.85 -8.05 38.24 0.51 2.31 -0.00 -0.00 0.00 
366.802490 45.948753 3794.658447 23.27 -9.16 6.72 3.32 13.79 -0.25 1.43 5.91 -0.10 -5.93 -0.64 4.88 6.83 -15.38 5.41 1.89 -3.25 -0.07 -86.14 7.97 13.10 -96.22 3.16 39.07 14.11 18.05 4.46 4.05 -1.27 -0.09 65.31 -17.64 6.06 95.64 -2.39 27.71 -27.12 11.94 -6.21 -34.55 9.05 7.48 124.40 3.99 -3.27 37.58 -8.32 -6.28 -48.65 1.50 -9.61 47.15 0.26 2.87 -0.00 -0.00 0.00 
367.335388 45.497253 3801.331787 23.66 -9.90 5.97 4.24 12.26 5.88 1.81 5.25 2.52 -7.32 0.16 4.05 5.46 -15.84 5.00 0.55 -0.96 -0.16 -85.29 18.86 10.35 -92.53 2.97 36.99 15.15 22.43 5.94 6.26 -1.55 -0.01 71.55 4.73 8.12 98.44 -2.78 31.97 -30.42 14.78 -8.57 -57.52 9.69 4.13 131.42 4.57 -3.20 40.13 -9.04 -5.33 -40.33 4.53 -4.40 50.17 0.11 3.10 -0.00 -0.00 0.00 
369.076294 46.702984 3817.804932 24.18 -6.06 5.20 3.54 9.23 8.78 1.51 3.95 3.76 -6.46 -0.86 1.04 8.05 -13.58 1.42 0.68 -0.07 -0.13 -77.47 28.17 17.33 -95.50 2.71 31.49 15.05 21.73 5.70 6.09 -4.55 -0.05 77.23 15.90 12.09 105.19 -2.58 30.87 -30.98 9.90 -5.99 -71.37 3.04 1.82 121.45 4.27 -3.15 34.00 -2.29 -10.87 -28.94 0.52 -2.62 46.70 -0.02 3.10 -0.00 -0.00 0.00 
368.555206 48.642216 3817.363770 25.09 -1.80 4.60 1.93 5.52 11.76 0.83 2.36 5.03 -5.02 -2.61 -2.90 9.61 -9.94 -2.90 -0.60 1.25 -0.10 -66.67 37.43 25.58 -101.41 2.63 31.16 12.85 19.73 4.38 4.39 -6.70 -0.01 78.09 19.68 16.09 112.75 -2.65 32.20 -31.04 9.21 -5.64 -75.75 -3.50 -0.07 100.38 3.08 -3.82 27.69 -0.95 -11.87 -18.22 -5.04 -4.07 41.62 0.09 2.40 -0.00 -0.00 0.00 
369.188782 49.983395 3824.801025 25.69 -0.39 4.02 0.76 3.25 14.39 0.32 1.39 6.17 -4.75 -3.84 -5.33 9.86 -7.66 -5.50 -1.73 1.98 -0.12 -57.61 44.69 30.49 -106.90 2.23 26.31 12.02 18.75 3.91 3.18 -7.76 -0.09 76.57 19.30 18.09 117.81 -2.62 32.28 -30.54 10.64 -6.33 -74.28 -4.79 -2.05 77.72 1.40 -4.33 24.84 -2.36 -11.26 -12.07 -6.67 -5.36 41.47 0.16 2.50 -0.00 -0.00 0.00 
370.142120 50.629562 3840.690674 25.10 -1.97 3.55 0.68 1.93 16.68 0.29 0.82 7.15 -5.20 -4.38 -6.21 10.17 -5.01 -6.63 -2.28 2.31 -0.09 -51.67 51.47 31.46 -111.60 2.03 24.85 12.60 17.26 3.76 3.82 -8.05 -0.13 74.80 16.35 20.00 119.60 -2.55 31.66 -30.52 11.65 -6.97 -68.40 -1.70 -3.96 50.10 -0.45 -3.59 22.10 -2.24 -11.27 -9.05 -4.76 -4.99 51.48 -0.06 3.06 -0.00 -0.00 0.00 
369.763153 50.197304 3838.997314 23.97 -3.05 3.07 1.52 0.70 16.45 0.65 0.29 7.05 -5.79 -3.24 -6.07 9.99 -3.64 -6.28 -2.19 2.54 -0.09 -55.92 51.77 24.94 -113.00 2.22 25.41 11.27 16.62 3.32 4.08 -7.36 -0.04 75.26 12.42 22.27 116.47 -2.62 31.40 -32.40 8.76 -5.76 -61.47 0.81 -3.57 31.23 -1.07 -2.56 23.28 -1.09 -11.86 -9.01 -3.23 -5.27 66.56 -0.97 3.16 -0.00 -0.00 0.00 
